<?xml version="1.0" encoding="UTF-8" standalone="no"?>
<!-- Created with Inkscape (http://www.inkscape.org/) -->

<svg
   width="210mm"
   height="297mm"
   viewBox="0 0 210 297"
   version="1.1"
   id="svg9968"
   inkscape:version="1.1.2 (b8e25be833, 2022-02-05)"
   sodipodi:docname="desenho5.svg"
   xmlns:inkscape="http://www.inkscape.org/namespaces/inkscape"
   xmlns:sodipodi="http://sodipodi.sourceforge.net/DTD/sodipodi-0.dtd"
   xmlns:xlink="http://www.w3.org/1999/xlink"
   xmlns="http://www.w3.org/2000/svg"
   xmlns:svg="http://www.w3.org/2000/svg">
  <sodipodi:namedview
     id="namedview9970"
     pagecolor="#505050"
     bordercolor="#eeeeee"
     borderopacity="1"
     inkscape:pageshadow="0"
     inkscape:pageopacity="0"
     inkscape:pagecheckerboard="0"
     inkscape:document-units="mm"
     showgrid="false"
     inkscape:zoom="0.366586"
     inkscape:cx="597.40416"
     inkscape:cy="611.04352"
     inkscape:window-width="1920"
     inkscape:window-height="1009"
     inkscape:window-x="-8"
     inkscape:window-y="-8"
     inkscape:window-maximized="1"
     inkscape:current-layer="layer1-3" />
  <defs
     id="defs9965">
    <linearGradient
       inkscape:collect="always"
       id="linearGradient7810">
      <stop
         style="stop-color:#7de47a;stop-opacity:1"
         offset="0"
         id="stop7806" />
      <stop
         style="stop-color:#0a8c06;stop-opacity:1"
         offset="1"
         id="stop7808" />
    </linearGradient>
    <radialGradient
       inkscape:collect="always"
       xlink:href="#linearGradient7810"
       id="radialGradient7812"
       cx="202.404"
       cy="64.48822"
       fx="202.404"
       fy="64.48822"
       r="31.802807"
       gradientTransform="matrix(1,0,0,1.5643568,0,-36.394365)"
       gradientUnits="userSpaceOnUse" />
  </defs>
  <g
     inkscape:label="Camada 1"
     inkscape:groupmode="layer"
     id="layer1">
    <g
       inkscape:label="Camada 1"
       id="layer1-3"
       transform="translate(-146.76781,-67.821539)">
      <g
         id="g11775"
         transform="translate(48.35723,98.157959)">
        <rect
           style="fill:#f2f2f2;fill-opacity:1;stroke:none;stroke-width:0.974684;stroke-linecap:round;stroke-linejoin:round;paint-order:stroke fill markers"
           id="rect932-4-0"
           width="232.24081"
           height="150.42442"
           x="88.360512"
           y="-0.19148254" />
        <path
           id="path1578"
           style="fill:url(#radialGradient7812);fill-opacity:1;stroke-width:0.160865"
           d="m 202.05579,14.738004 c -5.73814,0.03746 -11.49691,1.535924 -16.6024,4.540665 -7.80619,4.594192 -12.88883,11.781241 -14.54885,20.57344 -0.43869,2.323445 -0.39376,7.528107 0.0842,9.778518 1.06208,5.000628 3.35917,9.91613 7.81829,16.729959 4.52503,6.914562 6.49647,10.457347 7.161,12.8692 0.18283,0.663568 0.44256,2.097968 0.57748,3.187455 0.30599,2.4709 0.68218,3.51652 1.54487,4.29591 0.75858,0.68533 1.38917,0.9817 2.95119,1.38715 1.66886,0.43318 6.40198,0.33162 8.12368,-0.17438 1.54152,-0.45304 2.14477,-0.83186 2.51603,-1.58037 0.26855,-0.54147 0.29783,-1.04494 0.29848,-5.104952 l 6.1e-4,-4.50422 -0.40217,-0.709754 c -0.5137,-0.906453 -0.97917,-1.241341 -2.1456,-1.543613 -1.39251,-0.360861 -2.44988,-0.841722 -3.88684,-1.768258 -4.27837,-2.758655 -6.96222,-7.454413 -7.49373,-13.110498 -0.43126,-4.589204 0.75135,-9.804391 3.37471,-14.881583 1.61528,-3.126175 3.17406,-5.441643 6.24546,-9.277385 2.96604,-3.704491 3.81826,-4.475001 4.94878,-4.475001 0.6275,0 0.76245,0.08925 2.00767,1.327137 5.04756,5.017836 8.92983,11.359758 11.15216,18.21796 1.05789,3.264706 1.3215,4.825785 1.31708,7.801953 -0.004,2.374485 -0.0489,2.815363 -0.43107,4.182489 -0.23492,0.84052 -0.71243,2.107332 -1.06102,2.815138 -1.72022,3.492939 -5.17797,6.824027 -9.16553,8.82998 -1.45336,0.731121 -2.34344,1.605318 -2.94678,2.894628 -0.92922,1.985687 -0.9805,3.751706 -0.21271,7.305219 0.77141,3.57026 0.46771,3.43429 7.54715,3.37439 6.07847,-0.0514 6.3916,-0.10036 7.4155,-1.15935 l 0.49798,-0.51496 0.1106,-2.40229 c 0.22424,-4.863511 0.59557,-7.645439 1.28817,-9.652217 0.6021,-1.744535 1.37761,-2.989506 3.26506,-5.241938 2.2256,-2.655969 3.18574,-3.882523 4.26167,-5.444274 3.11558,-4.522414 5.24425,-9.417171 6.16282,-14.170888 0.36995,-1.914538 0.49479,-5.692297 0.25199,-7.621292 -0.93261,-7.409202 -5.2067,-14.800825 -11.43022,-19.766916 -5.87498,-4.687979 -13.21813,-7.05521 -20.59574,-7.007052 z m 0.36226,20.249824 c -0.0704,-0.0089 -0.14053,-0.0075 -0.21176,0.005 -0.47489,0.0834 -0.99455,0.658536 -1.91907,1.929437 -1.07633,1.479582 -1.03348,1.421706 -1.49649,2.010813 -0.86804,1.104441 -3.34993,4.766449 -4.13598,6.102502 -2.76645,4.70208 -3.99157,8.475695 -4.1294,12.718702 -0.0659,2.029727 -0.0255,2.670152 0.25606,4.032622 0.78888,3.817545 2.78437,6.898794 5.70663,8.811756 2.19881,1.439374 3.42975,1.730226 4.13725,0.97713 0.33368,-0.355189 0.3899,-0.573028 0.3899,-1.507481 0,-0.968881 -0.0785,-1.2468 -0.69498,-2.462617 -0.54409,-1.073055 -0.97176,-1.638103 -1.9706,-2.603687 -1.01879,-0.984877 -1.27561,-1.327246 -1.27561,-1.701022 0,-0.918888 0.85023,-0.95165 1.99699,-0.07698 1.15911,0.884093 1.86377,0.355483 1.86377,-1.397515 0,-1.956365 -0.54197,-2.934396 -2.61939,-4.726665 -0.61415,-0.529845 -0.75877,-0.754115 -0.75877,-1.176955 0,-0.690653 0.2588,-1.144591 0.65225,-1.144591 0.17547,0 0.67479,0.186055 1.10972,0.413473 1.10151,0.575966 1.37569,0.407719 1.51502,-0.929686 0.17831,-1.711539 0.5187,-2.73372 1.07861,-3.238037 0.27868,-0.250999 0.56752,-0.395451 0.6419,-0.321101 0.0743,0.07435 0.2179,1.148539 0.3189,2.386897 0.2736,3.354979 0.5854,3.740565 1.89581,2.344796 0.82564,-0.87941 1.2824,-1.01428 1.92128,-0.566798 0.65105,0.456021 0.47117,1.014264 -0.69845,2.167279 -1.30966,1.291072 -2.3691,2.858563 -2.70768,4.005915 -0.31726,1.075091 -0.33358,2.419911 -0.0342,2.829276 0.28477,0.389441 0.63282,0.244341 1.90681,-0.794271 1.15049,-0.937917 1.7356,-1.162412 2.35737,-0.904866 0.58566,0.242589 0.95186,0.888718 0.71635,1.263984 -0.0936,0.149074 -0.61544,0.524509 -1.15967,0.834174 -2.1232,1.208084 -3.66045,3.320348 -3.83751,5.273041 -0.11042,1.217741 0.0153,1.728252 0.547,2.221006 0.86129,0.798208 2.33591,0.432273 4.34556,-1.077984 2.35698,-1.771288 4.08609,-4.07569 5.24444,-6.989145 0.76751,-1.930411 1.07736,-3.563802 1.07736,-5.679603 0,-3.062351 -0.70891,-5.67226 -2.48964,-9.166162 -2.08164,-4.0843 -7.6341,-12.550726 -8.86738,-13.520826 -0.24768,-0.194817 -0.46103,-0.315028 -0.67237,-0.341838 z m -11.3413,55.659913 c -3.15545,0.0503 -3.17624,0.29122 -3.77938,0.86245 -1.33249,1.26203 -0.91743,3.50331 0.73332,3.95911 0.61149,0.16884 5.34279,0.46102 8.96288,0.5536 3.3455,0.0855 17.2665,-0.0669 18.48219,-0.20234 1.28741,-0.14348 1.56144,-0.37984 1.94735,-1.67934 0.3047,-1.02604 0.17884,-1.75878 -0.40216,-2.33977 -0.80591,-0.80591 -1.11783,-0.83359 -11.14367,-0.99096 -4.56895,-0.0717 -7.94773,-0.12739 -10.46251,-0.15458 -1.88609,-0.0204 -3.28619,-0.0249 -4.33802,-0.008 z m 11.60491,9.16962 c -5.99214,0.003 -11.98897,0.0623 -12.61596,0.17532 -1.25552,0.226399 -2.03443,0.751549 -2.48022,1.672429 -0.53814,1.11165 -0.27947,1.94876 0.80181,2.5952 0.13272,0.0794 1.00139,0.1871 1.93038,0.23942 0.929,0.0523 6.79253,0.0887 13.03007,0.0807 l 11.34098,-0.0145 0.72389,-0.36351 c 0.8879,-0.44573 1.47835,-1.31102 1.57409,-2.30741 0.0995,-1.03511 -0.48524,-1.68682 -1.71673,-1.914349 -0.60875,-0.11248 -6.59618,-0.16625 -12.58831,-0.16338 z m -1.07453,8.850719 c -12.68415,0 -12.80264,0.003 -13.49664,0.33901 -0.99701,0.48265 -1.49288,1.27779 -1.49208,2.39286 10e-4,1.35569 0.97441,2.6036 2.17105,2.7831 0.26542,0.0398 6.43034,0.0641 13.69991,0.0537 l 13.21764,-0.0188 0.68053,-0.48259 c 2.15709,-1.52912 1.493,-4.40799 -1.13171,-4.90575 -0.52614,-0.0998 -5.74949,-0.1615 -13.6487,-0.1615 z" />
        <g
           aria-label="CSE"
           id="text4351"
           style="font-size:30.4586px;line-height:1.25;fill:#0a8c06;stroke-width:0.761465">
          <path
             d="m 196.42736,136.47846 q -0.67009,1.37064 -1.79706,2.13211 -1.09651,0.731 -2.4976,0.731 -2.83265,0 -4.23375,-2.71081 -1.40109,-2.71082 -1.40109,-8.34566 0,-5.48255 1.49247,-8.22382 1.49247,-2.77173 4.44695,-2.77173 1.09651,0 2.22348,0.76146 1.12697,0.76147 1.7666,2.1321 l -1.4011,0.97468 q -1.15742,-2.10164 -2.89356,-2.10164 -3.71595,0 -3.71595,8.77207 0,4.14237 0.79192,6.94456 0.82238,2.77174 3.07632,2.77174 0.94422,0 1.52293,-0.45688 0.57871,-0.48734 1.09651,-1.46202 z"
             style="font-family:'Donau Uppercase';-inkscape-font-specification:'Donau Uppercase'"
             id="path921" />
          <path
             d="m 203.28056,126.79263 q 1.79706,1.79706 2.6499,3.25907 0.8833,1.46201 0.8833,3.50274 0,2.58898 -1.34018,4.20329 -1.34018,1.58384 -3.50274,1.58384 -1.55339,0 -2.61944,-0.63963 -1.03559,-0.63963 -2.01027,-2.1321 l 1.64477,-0.91376 q 0.76146,1.0356 1.43155,1.43156 0.67009,0.3655 1.64477,0.3655 1.67522,0 2.25393,-1.12697 0.60917,-1.15742 0.60917,-2.55852 0,-1.55339 -0.63963,-2.68036 -0.60917,-1.15742 -2.22347,-2.71081 -1.79706,-1.70568 -2.71082,-3.22861 -0.8833,-1.55339 -0.8833,-3.56366 0,-1.94935 1.03559,-3.10678 1.06605,-1.18788 2.58898,-1.18788 1.27927,0 2.13211,0.67009 0.8833,0.67009 1.52293,2.1321 l -1.7666,0.73101 q -0.45688,-0.94422 -0.85284,-1.27927 -0.39596,-0.3655 -1.0356,-0.3655 -0.82238,0 -1.27926,0.63963 -0.45688,0.60917 -0.45688,1.70568 0,1.46202 0.70055,2.61944 0.73101,1.15743 2.22348,2.6499 z"
             style="font-family:'Donau Uppercase';-inkscape-font-specification:'Donau Uppercase'"
             id="path923" />
          <path
             d="m 216.28636,117.71597 v 1.7666 h -4.69062 v 3.68549 h 2.89356 v 1.64476 h -2.89356 v 12.42711 h 4.69062 v 1.79706 h -6.5486 v -21.32102 z"
             style="font-family:'Donau Uppercase';-inkscape-font-specification:'Donau Uppercase'"
             id="path925" />
        </g>
      </g>
    </g>
  </g>
</svg>
