<?xml version="1.0" encoding="UTF-8" standalone="no"?>
<!-- Created with Inkscape (http://www.inkscape.org/) -->

<svg
   width="210mm"
   height="297mm"
   viewBox="0 0 210 297"
   version="1.1"
   id="svg7777"
   inkscape:version="1.1.2 (b8e25be833, 2022-02-05)"
   sodipodi:docname="desenho4.svg"
   xmlns:inkscape="http://www.inkscape.org/namespaces/inkscape"
   xmlns:sodipodi="http://sodipodi.sourceforge.net/DTD/sodipodi-0.dtd"
   xmlns:xlink="http://www.w3.org/1999/xlink"
   xmlns="http://www.w3.org/2000/svg"
   xmlns:svg="http://www.w3.org/2000/svg">
  <sodipodi:namedview
     id="namedview7779"
     pagecolor="#505050"
     bordercolor="#eeeeee"
     borderopacity="1"
     inkscape:pageshadow="0"
     inkscape:pageopacity="0"
     inkscape:pagecheckerboard="0"
     inkscape:document-units="mm"
     showgrid="false"
     inkscape:zoom="0.51843089"
     inkscape:cx="447.5042"
     inkscape:cy="520.8023"
     inkscape:window-width="1920"
     inkscape:window-height="1009"
     inkscape:window-x="-8"
     inkscape:window-y="-8"
     inkscape:window-maximized="1"
     inkscape:current-layer="layer1-3" />
  <defs
     id="defs7774">
    <linearGradient
       inkscape:collect="always"
       id="linearGradient7810">
      <stop
         style="stop-color:#7de47a;stop-opacity:1"
         offset="0"
         id="stop7806" />
      <stop
         style="stop-color:#0a8c06;stop-opacity:1"
         offset="1"
         id="stop7808" />
    </linearGradient>
    <radialGradient
       inkscape:collect="always"
       xlink:href="#linearGradient7810"
       id="radialGradient7812-9"
       cx="202.40401"
       cy="64.48822"
       fx="202.40401"
       fy="64.48822"
       r="31.802807"
       gradientTransform="matrix(1,0,0,1.5643568,100.10959,113.34728)"
       gradientUnits="userSpaceOnUse" />
  </defs>
  <g
     inkscape:label="Camada 1"
     inkscape:groupmode="layer"
     id="layer1">
    <g
       inkscape:label="Camada 1"
       id="layer1-3"
       transform="translate(-165.5333,-80.452158)">
      <g
         id="g9947"
         transform="translate(-31.641954,-5.103541)">
        <rect
           style="fill:#0d0d0d;fill-opacity:1;stroke:none;stroke-width:0.900119;stroke-linecap:round;stroke-linejoin:round;paint-order:stroke fill markers"
           id="rect932-4"
           width="199.10152"
           height="149.64351"
           x="200.17052"
           y="150.3524" />
        <path
           id="path1578-9"
           style="fill:url(#radialGradient7812-9);fill-opacity:1;stroke-width:0.160865"
           d="m 302.16539,164.47964 c -5.73814,0.0375 -11.49691,1.53593 -16.6024,4.54067 -7.80619,4.59419 -12.88883,11.78124 -14.54885,20.57344 -0.43869,2.32344 -0.39376,7.52811 0.0842,9.77852 1.06208,5.00063 3.35917,9.91613 7.81829,16.72996 4.52503,6.91456 6.49647,10.45734 7.161,12.8692 0.18283,0.66356 0.44256,2.09796 0.57748,3.18745 0.30599,2.4709 0.68218,3.51652 1.54487,4.29591 0.75858,0.68533 1.38917,0.9817 2.95119,1.38715 1.66886,0.43318 6.40198,0.33162 8.12368,-0.17438 1.54152,-0.45304 2.14477,-0.83186 2.51603,-1.58037 0.26855,-0.54147 0.29783,-1.04494 0.29848,-5.10495 l 6.1e-4,-4.50422 -0.40217,-0.70975 c -0.5137,-0.90646 -0.97917,-1.24135 -2.1456,-1.54362 -1.39251,-0.36086 -2.44988,-0.84172 -3.88684,-1.76826 -4.27837,-2.75865 -6.96222,-7.45441 -7.49373,-13.11049 -0.43126,-4.58921 0.75135,-9.80439 3.37471,-14.88159 1.61528,-3.12617 3.17406,-5.44164 6.24546,-9.27738 2.96604,-3.70449 3.81826,-4.475 4.94878,-4.475 0.6275,0 0.76245,0.0893 2.00767,1.32713 5.04756,5.01784 8.92983,11.35976 11.15216,18.21796 1.05789,3.26471 1.3215,4.82579 1.31708,7.80196 -0.004,2.37448 -0.0489,2.81536 -0.43107,4.18249 -0.23492,0.84052 -0.71243,2.10733 -1.06102,2.81513 -1.72022,3.49294 -5.17797,6.82403 -9.16553,8.82998 -1.45336,0.73113 -2.34344,1.60532 -2.94678,2.89463 -0.92922,1.98569 -0.9805,3.75171 -0.21271,7.30522 0.77141,3.57026 0.46771,3.43429 7.54715,3.37439 6.07847,-0.0514 6.3916,-0.10036 7.4155,-1.15935 l 0.49798,-0.51496 0.1106,-2.40229 c 0.22424,-4.86351 0.59557,-7.64544 1.28817,-9.65222 0.6021,-1.74453 1.37761,-2.9895 3.26506,-5.24193 2.2256,-2.65597 3.18574,-3.88253 4.26167,-5.44428 3.11558,-4.52241 5.24425,-9.41717 6.16282,-14.17089 0.36995,-1.91453 0.49479,-5.69229 0.25199,-7.62129 -0.93261,-7.4092 -5.2067,-14.80082 -11.43022,-19.76691 -5.87498,-4.68798 -13.21813,-7.05521 -20.59574,-7.00706 z m 0.36226,20.24983 c -0.0704,-0.009 -0.14053,-0.008 -0.21176,0.005 -0.47489,0.0834 -0.99455,0.65853 -1.91907,1.92944 -1.07633,1.47958 -1.03348,1.4217 -1.49649,2.01081 -0.86804,1.10444 -3.34993,4.76645 -4.13598,6.1025 -2.76645,4.70208 -3.99157,8.4757 -4.1294,12.7187 -0.0659,2.02973 -0.0255,2.67015 0.25606,4.03262 0.78888,3.81755 2.78437,6.8988 5.70663,8.81176 2.19881,1.43937 3.42975,1.73023 4.13725,0.97713 0.33368,-0.35519 0.3899,-0.57303 0.3899,-1.50748 0,-0.96888 -0.0785,-1.2468 -0.69498,-2.46262 -0.54409,-1.07305 -0.97176,-1.6381 -1.9706,-2.60368 -1.01879,-0.98488 -1.27561,-1.32725 -1.27561,-1.70103 0,-0.91888 0.85023,-0.95165 1.99699,-0.077 1.15911,0.8841 1.86377,0.35549 1.86377,-1.39751 0,-1.95637 -0.54197,-2.9344 -2.61939,-4.72667 -0.61415,-0.52984 -0.75877,-0.75411 -0.75877,-1.17695 0,-0.69065 0.2588,-1.14459 0.65225,-1.14459 0.17547,0 0.67479,0.18605 1.10972,0.41347 1.10151,0.57597 1.37569,0.40772 1.51502,-0.92969 0.17831,-1.71153 0.5187,-2.73372 1.07861,-3.23803 0.27868,-0.251 0.56752,-0.39545 0.6419,-0.3211 0.0743,0.0744 0.2179,1.14854 0.3189,2.38689 0.2736,3.35498 0.5854,3.74057 1.89581,2.3448 0.82564,-0.87941 1.2824,-1.01428 1.92128,-0.5668 0.65105,0.45602 0.47117,1.01427 -0.69845,2.16728 -1.30966,1.29107 -2.3691,2.85856 -2.70768,4.00592 -0.31726,1.07509 -0.33358,2.41991 -0.0342,2.82927 0.28477,0.38944 0.63282,0.24434 1.90681,-0.79427 1.15049,-0.93792 1.7356,-1.16241 2.35737,-0.90487 0.58566,0.24259 0.95186,0.88872 0.71635,1.26399 -0.0936,0.14907 -0.61544,0.52451 -1.15967,0.83417 -2.1232,1.20809 -3.66045,3.32035 -3.83751,5.27304 -0.11042,1.21774 0.0153,1.72826 0.547,2.22101 0.86129,0.79821 2.33591,0.43227 4.34556,-1.07798 2.35698,-1.77129 4.08609,-4.07569 5.24444,-6.98915 0.76751,-1.93041 1.07736,-3.5638 1.07736,-5.6796 0,-3.06235 -0.70891,-5.67226 -2.48964,-9.16616 -2.08164,-4.0843 -7.6341,-12.55073 -8.86738,-13.52083 -0.24768,-0.19482 -0.46103,-0.31503 -0.67237,-0.34184 z m -11.3413,55.65991 c -3.15545,0.0503 -3.17624,0.29122 -3.77938,0.86245 -1.33249,1.26203 -0.91743,3.50331 0.73332,3.95911 0.61149,0.16884 5.34279,0.46102 8.96288,0.5536 3.3455,0.0855 17.2665,-0.0669 18.48219,-0.20234 1.28741,-0.14348 1.56144,-0.37984 1.94735,-1.67934 0.3047,-1.02604 0.17884,-1.75878 -0.40216,-2.33977 -0.80591,-0.80591 -1.11783,-0.83359 -11.14367,-0.99096 -4.56895,-0.0717 -7.94773,-0.12739 -10.46251,-0.15458 -1.88609,-0.0204 -3.28619,-0.0249 -4.33802,-0.008 z m 11.60491,9.16962 c -5.99214,0.003 -11.98897,0.0623 -12.61596,0.17532 -1.25552,0.2264 -2.03443,0.75155 -2.48022,1.67243 -0.53814,1.11165 -0.27947,1.94876 0.80181,2.5952 0.13272,0.0794 1.00139,0.1871 1.93038,0.23942 0.929,0.0523 6.79253,0.0887 13.03007,0.0807 l 11.34098,-0.0145 0.72389,-0.36351 c 0.8879,-0.44573 1.47835,-1.31102 1.57409,-2.30741 0.0995,-1.03511 -0.48524,-1.68682 -1.71673,-1.91435 -0.60875,-0.11248 -6.59618,-0.16625 -12.58831,-0.16338 z m -1.07453,8.85072 c -12.68415,0 -12.80264,0.003 -13.49664,0.33901 -0.99701,0.48265 -1.49288,1.27779 -1.49208,2.39286 0.001,1.35569 0.97441,2.6036 2.17105,2.7831 0.26542,0.0398 6.43034,0.0641 13.69991,0.0537 l 13.21764,-0.0188 0.68053,-0.48259 c 2.15709,-1.52912 1.493,-4.40799 -1.13171,-4.90575 -0.52614,-0.0998 -5.74949,-0.1615 -13.6487,-0.1615 z" />
        <g
           aria-label="CSE"
           id="text4351-4"
           style="font-size:30.4586px;line-height:1.25;fill:#0a8c06;stroke-width:0.761465">
          <path
             d="m 296.53699,286.2201 q -0.67009,1.37064 -1.79705,2.13211 -1.09651,0.731 -2.49761,0.731 -2.83265,0 -4.23374,-2.71081 -1.4011,-2.71082 -1.4011,-8.34566 0,-5.48255 1.49247,-8.22382 1.49247,-2.77173 4.44696,-2.77173 1.09651,0 2.22347,0.76146 1.12697,0.76147 1.7666,2.1321 l -1.40109,0.97468 q -1.15743,-2.10165 -2.89357,-2.10165 -3.71595,0 -3.71595,8.77208 0,4.14237 0.79193,6.94456 0.82238,2.77173 3.07631,2.77173 0.94422,0 1.52293,-0.45687 0.57872,-0.48734 1.09651,-1.46202 z"
             style="font-family:'Donau Uppercase';-inkscape-font-specification:'Donau Uppercase'"
             id="path896" />
          <path
             d="m 303.39019,276.53427 q 1.79706,1.79706 2.6499,3.25907 0.8833,1.46201 0.8833,3.50274 0,2.58898 -1.34018,4.20328 -1.34017,1.58385 -3.50274,1.58385 -1.55338,0 -2.61943,-0.63963 -1.0356,-0.63963 -2.01027,-2.1321 l 1.64476,-0.91376 q 0.76147,1.03559 1.43156,1.43156 0.67009,0.3655 1.64476,0.3655 1.67522,0 2.25394,-1.12697 0.60917,-1.15743 0.60917,-2.55852 0,-1.55339 -0.63963,-2.68036 -0.60917,-1.15743 -2.22348,-2.71081 -1.79706,-1.70569 -2.71081,-3.22862 -0.8833,-1.55338 -0.8833,-3.56365 0,-1.94935 1.03559,-3.10678 1.06605,-1.18788 2.58898,-1.18788 1.27926,0 2.1321,0.67008 0.8833,0.67009 1.52293,2.13211 l -1.7666,0.731 q -0.45688,-0.94421 -0.85284,-1.27926 -0.39596,-0.3655 -1.03559,-0.3655 -0.82238,0 -1.27926,0.63963 -0.45688,0.60917 -0.45688,1.70568 0,1.46201 0.70055,2.61944 0.731,1.15743 2.22347,2.6499 z"
             style="font-family:'Donau Uppercase';-inkscape-font-specification:'Donau Uppercase'"
             id="path898" />
          <path
             d="m 316.396,267.45761 v 1.76659 h -4.69063 v 3.6855 h 2.89357 v 1.64476 h -2.89357 v 12.42711 h 4.69063 v 1.79706 h -6.5486 v -21.32102 z"
             style="font-family:'Donau Uppercase';-inkscape-font-specification:'Donau Uppercase'"
             id="path900" />
        </g>
      </g>
    </g>
  </g>
</svg>
